<svg width="40" height="40" viewBox="0 0 40 40" fill="none" xmlns="http://www.w3.org/2000/svg">
<path d="M8.33337 5H30C31.3261 5 32.5979 5.52678 33.5356 6.46447C34.4733 7.40215 35 8.67392 35 10V25C35 26.3261 34.4733 27.5979 33.5356 28.5355C32.5979 29.4732 31.3261 30 30 30H22.35L16.1834 36.1833C15.8834 36.4833 15.4667 36.6667 15 36.6667C14.558 36.6667 14.1341 36.4911 13.8215 36.1785C13.509 35.866 13.3334 35.442 13.3334 35V30H8.33337C7.00729 30 5.73552 29.4732 4.79784 28.5355C3.86016 27.5979 3.33337 26.3261 3.33337 25V10C3.33337 8.67392 3.86016 7.40215 4.79784 6.46447C5.73552 5.52678 7.00729 5 8.33337 5ZM30 6.66667H8.33337C7.44932 6.66667 6.60147 7.01786 5.97635 7.64298C5.35123 8.2681 5.00004 9.11594 5.00004 10V25C5.00004 25.8841 5.35123 26.7319 5.97635 27.357C6.60147 27.9821 7.44932 28.3333 8.33337 28.3333H15V35L21.6667 28.3333H30C30.8841 28.3333 31.7319 27.9821 32.3571 27.357C32.9822 26.7319 33.3334 25.8841 33.3334 25V10C33.3334 9.11594 32.9822 8.2681 32.3571 7.64298C31.7319 7.01786 30.8841 6.66667 30 6.66667Z" fill="#52796F"/>
</svg>
