<svg width="41" height="40" viewBox="0 0 41 40" fill="none" xmlns="http://www.w3.org/2000/svg">
<path d="M20.5 35C28.7843 35 35.5 28.2843 35.5 20C35.5 11.7157 28.7843 5 20.5 5C12.2157 5 5.5 11.7157 5.5 20C5.5 28.2843 12.2157 35 20.5 35Z" stroke="#242423" stroke-width="2" stroke-linecap="round" stroke-linejoin="round"/>
<path d="M19.345 16.2317L25.5 15L24.2683 21.155C24.1394 21.8001 23.8225 22.3927 23.3574 22.858C22.8924 23.3233 22.3 23.6407 21.655 23.77L15.5 25L16.7317 18.845C16.8609 18.2002 17.178 17.608 17.643 17.143C18.108 16.678 18.7002 16.3609 19.345 16.2317Z" stroke="#242423" stroke-width="2" stroke-linecap="round" stroke-linejoin="round"/>
</svg>
