<svg width="40" height="40" viewBox="0 0 40 40" fill="none" xmlns="http://www.w3.org/2000/svg">
<path d="M27.8125 5.3125C24.5312 5.3125 21.6781 6.79219 20 9.27187C18.3219 6.79219 15.4688 5.3125 12.1875 5.3125C9.70198 5.31539 7.3191 6.30404 5.56157 8.06157C3.80404 9.8191 2.81539 12.202 2.8125 14.6875C2.8125 19.25 5.65625 23.9984 11.2656 28.7984C13.836 30.9887 16.6125 32.9248 19.5563 34.5797C19.6927 34.653 19.8451 34.6914 20 34.6914C20.1549 34.6914 20.3073 34.653 20.4437 34.5797C23.3875 32.9248 26.164 30.9887 28.7344 28.7984C34.3438 23.9984 37.1875 19.25 37.1875 14.6875C37.1846 12.202 36.196 9.8191 34.4384 8.06157C32.6809 6.30404 30.298 5.31539 27.8125 5.3125ZM20 32.6734C17.4359 31.1938 4.6875 23.3937 4.6875 14.6875C4.68957 12.699 5.48041 10.7926 6.88648 9.38648C8.29256 7.98041 10.199 7.18957 12.1875 7.1875C15.3562 7.1875 18.0172 8.87969 19.1328 11.6047C19.2034 11.7766 19.3236 11.9237 19.478 12.0272C19.6324 12.1307 19.8141 12.186 20 12.186C20.1859 12.186 20.3676 12.1307 20.522 12.0272C20.6764 11.9237 20.7966 11.7766 20.8672 11.6047C21.9828 8.87969 24.6437 7.1875 27.8125 7.1875C29.801 7.18957 31.7074 7.98041 33.1135 9.38648C34.5196 10.7926 35.3104 12.699 35.3125 14.6875C35.3125 23.3937 22.5641 31.1938 20 32.6734Z" fill="#52796F"/>
</svg>
