<svg width="41" height="40" viewBox="0 0 41 40" fill="none" xmlns="http://www.w3.org/2000/svg">
<path d="M33.8333 31.6668V17.5002C33.8333 17.2414 33.7731 16.9862 33.6573 16.7548C33.5416 16.5234 33.3736 16.3221 33.1666 16.1668L21.5 7.41683C21.2115 7.20046 20.8606 7.0835 20.5 7.0835C20.1393 7.0835 19.7885 7.20046 19.5 7.41683L7.83329 16.1668C7.6263 16.3221 7.45829 16.5234 7.34258 16.7548C7.22687 16.9862 7.16663 17.2414 7.16663 17.5002V31.6668C7.16663 32.1089 7.34222 32.5328 7.65478 32.8453C7.96734 33.1579 8.39127 33.3335 8.83329 33.3335H15.5C15.942 33.3335 16.3659 33.1579 16.6785 32.8453C16.991 32.5328 17.1666 32.1089 17.1666 31.6668V26.6668C17.1666 26.2248 17.3422 25.8009 17.6548 25.4883C17.9673 25.1758 18.3913 25.0002 18.8333 25.0002H22.1666C22.6087 25.0002 23.0326 25.1758 23.3451 25.4883C23.6577 25.8009 23.8333 26.2248 23.8333 26.6668V31.6668C23.8333 32.1089 24.0089 32.5328 24.3214 32.8453C24.634 33.1579 25.0579 33.3335 25.5 33.3335H32.1666C32.6087 33.3335 33.0326 33.1579 33.3451 32.8453C33.6577 32.5328 33.8333 32.1089 33.8333 31.6668Z" stroke="#52796F" stroke-width="2" stroke-linecap="round" stroke-linejoin="round"/>
</svg>
