<svg width="41" height="40" viewBox="0 0 41 40" fill="none" xmlns="http://www.w3.org/2000/svg">
<path d="M35.3783 16.65C24.3617 15.1367 14.8617 23.3167 15.5 34.1667M11.3333 13.3333C11.3333 14.2174 11.6845 15.0652 12.3097 15.6904C12.9348 16.3155 13.7826 16.6667 14.6667 16.6667C15.5507 16.6667 16.3986 16.3155 17.0237 15.6904C17.6488 15.0652 18 14.2174 18 13.3333C18 12.4493 17.6488 11.6014 17.0237 10.9763C16.3986 10.3512 15.5507 10 14.6667 10C13.7826 10 12.9348 10.3512 12.3097 10.9763C11.6845 11.6014 11.3333 12.4493 11.3333 13.3333Z" stroke="#354F52" stroke-width="2.5" stroke-linecap="round" stroke-linejoin="round"/>
<path d="M5.5 21.7765C10.1333 21.1348 14.2917 23.3731 16.54 26.9431" stroke="#354F52" stroke-width="2.5" stroke-linecap="round" stroke-linejoin="round"/>
<path d="M5.5 20C5.5 12.9283 5.5 9.39333 7.69667 7.19667C9.89333 5 13.43 5 20.5 5C27.5717 5 31.1067 5 33.3033 7.19667C35.5 9.39333 35.5 12.93 35.5 20C35.5 27.0717 35.5 30.6067 33.3033 32.8033C31.1067 35 27.57 35 20.5 35C13.4283 35 9.89333 35 7.69667 32.8033C5.5 30.6067 5.5 27.07 5.5 20Z" stroke="#354F52" stroke-width="2.5" stroke-linecap="round" stroke-linejoin="round"/>
</svg>
