<svg width="41" height="40" viewBox="0 0 41 40" fill="none" xmlns="http://www.w3.org/2000/svg">
<path d="M10.5 6.6665H28.8333C30.1594 6.6665 31.4312 7.19329 32.3689 8.13097C33.3065 9.06865 33.8333 10.3404 33.8333 11.6665V29.9998C33.8333 31.3259 33.3065 32.5977 32.3689 33.5354C31.4312 34.4731 30.1594 34.9998 28.8333 34.9998H10.5C9.17392 34.9998 7.90215 34.4731 6.96447 33.5354C6.02678 32.5977 5.5 31.3259 5.5 29.9998V11.6665C5.5 10.3404 6.02678 9.06865 6.96447 8.13097C7.90215 7.19329 9.17392 6.6665 10.5 6.6665ZM10.5 8.33317C9.61594 8.33317 8.7681 8.68436 8.14298 9.30948C7.51786 9.9346 7.16667 10.7824 7.16667 11.6665V24.9998H15.5V25.8332C15.5 26.9382 15.939 27.998 16.7204 28.7794C17.5018 29.5609 18.5616 29.9998 19.6667 29.9998C20.7717 29.9998 21.8315 29.5609 22.6129 28.7794C23.3943 27.998 23.8333 26.9382 23.8333 25.8332V24.9998H32.1667V11.6665C32.1667 10.7824 31.8155 9.9346 31.1904 9.30948C30.5652 8.68436 29.7174 8.33317 28.8333 8.33317H10.5ZM7.16667 29.9998C7.16667 30.8839 7.51786 31.7317 8.14298 32.3569C8.7681 32.982 9.61594 33.3332 10.5 33.3332H28.8333C29.7174 33.3332 30.5652 32.982 31.1904 32.3569C31.8155 31.7317 32.1667 30.8839 32.1667 29.9998V26.6665H25.4333C25.0333 29.4998 22.6 31.6665 19.6667 31.6665C16.7333 31.6665 14.3 29.4998 13.9 26.6665H7.16667V29.9998Z" fill="#242423"/>
</svg>
