<svg width="40" height="40" viewBox="0 0 40 40" fill="none" xmlns="http://www.w3.org/2000/svg">
<g clip-path="url(#clip0_32_855)">
<path d="M20 0C14.0846 0 9.23077 4.85385 9.23077 10.7692V12.3077H7.69231C6 12.3077 4.61539 13.6923 4.61539 15.3846V33.8462C4.61539 35.5385 6 36.9231 7.69231 36.9231H32.3077C34 36.9231 35.3846 35.5385 35.3846 33.8462V15.3846C35.3846 13.6923 34 12.3077 32.3077 12.3077H30.7692V10.7692C30.7692 4.85385 25.9154 0 20 0ZM20 3.07692C24.2385 3.07692 27.6923 6.53077 27.6923 10.7692V12.3077H12.3077V10.7692C12.3077 6.53077 15.7615 3.07692 20 3.07692ZM20 16.9231C24.3077 16.9231 27.6923 20.3077 27.6923 24.6154C27.6923 28.9231 24.3077 32.3077 20 32.3077C15.6923 32.3077 12.3077 28.9231 12.3077 24.6154C12.3077 20.3077 15.6923 16.9231 20 16.9231ZM20 20C17.3846 20 15.3846 22 15.3846 24.6154C15.3846 27.2308 17.3846 29.2308 20 29.2308C22.6154 29.2308 24.6154 27.2308 24.6154 24.6154C24.6154 24.1538 24.4708 23.6831 24.4708 23.2215C24.0092 23.9908 23.2308 24.6154 22.3077 24.6154C21.0769 24.6154 20 23.5385 20 22.3077C20 21.3846 20.6246 20.6062 21.3938 20.1446C20.9323 20.1446 20.4615 20 20 20Z" fill="#354F52"/>
</g>
<defs>
<clipPath id="clip0_32_855">
<rect width="40" height="40" fill="white"/>
</clipPath>
</defs>
</svg>
