<svg width="41" height="40" viewBox="0 0 41 40" fill="none" xmlns="http://www.w3.org/2000/svg">
<path d="M7.16663 29.9997C7.16663 28.2316 7.869 26.5359 9.11925 25.2856C10.3695 24.0354 12.0652 23.333 13.8333 23.333H27.1666C28.9347 23.333 30.6304 24.0354 31.8807 25.2856C33.1309 26.5359 33.8333 28.2316 33.8333 29.9997C33.8333 30.8837 33.4821 31.7316 32.857 32.3567C32.2319 32.9818 31.384 33.333 30.5 33.333H10.5C9.6159 33.333 8.76806 32.9818 8.14294 32.3567C7.51782 31.7316 7.16663 30.8837 7.16663 29.9997Z" stroke="#242423" stroke-width="2" stroke-linejoin="round"/>
<path d="M20.5 16.6665C23.2614 16.6665 25.5 14.4279 25.5 11.6665C25.5 8.90508 23.2614 6.6665 20.5 6.6665C17.7386 6.6665 15.5 8.90508 15.5 11.6665C15.5 14.4279 17.7386 16.6665 20.5 16.6665Z" stroke="#242423" stroke-width="2"/>
</svg>
