<svg width="20" height="20" viewBox="0 0 20 20" fill="none" xmlns="http://www.w3.org/2000/svg">
<path d="M10.0025 17.5C8.96583 17.5 7.99083 17.3033 7.0775 16.91C6.16472 16.5161 5.37056 15.9817 4.695 15.3067C4.01944 14.6322 3.48472 13.8389 3.09083 12.9267C2.69694 12.0144 2.5 11.0397 2.5 10.0025C2.5 8.96583 2.69667 7.99083 3.09 7.0775C3.48389 6.16472 4.01833 5.37056 4.69333 4.695C5.36778 4.01944 6.16111 3.48472 7.07333 3.09083C7.98556 2.69694 8.96028 2.5 9.9975 2.5C11.0342 2.5 12.0092 2.69667 12.9225 3.09C13.8353 3.48389 14.6294 4.01833 15.305 4.69333C15.9806 5.36778 16.5153 6.16111 16.9092 7.07333C17.3031 7.98556 17.5 8.96028 17.5 9.9975C17.5 11.0342 17.3033 12.0092 16.91 12.9225C16.5161 13.8353 15.9817 14.6294 15.3067 15.305C14.6322 15.9806 13.8389 16.5153 12.9267 16.9092C12.0144 17.3031 11.0397 17.5 10.0025 17.5ZM9.16667 16.625V15C8.70833 15 8.31611 14.8369 7.99 14.5108C7.66389 14.1847 7.50056 13.7922 7.5 13.3333V12.5L3.5 8.5C3.45833 8.75 3.42028 9 3.38583 9.25C3.35139 9.5 3.33389 9.75 3.33333 10C3.33333 11.6806 3.88556 13.1528 4.99 14.4167C6.09444 15.6806 7.48667 16.4167 9.16667 16.625ZM14.9167 14.5C15.1944 14.1944 15.4444 13.8647 15.6667 13.5108C15.8889 13.1569 16.0728 12.7889 16.2183 12.4067C16.3644 12.0244 16.4756 11.6319 16.5517 11.2292C16.6278 10.8264 16.6661 10.4167 16.6667 10C16.6667 8.63111 16.2908 7.38083 15.5392 6.24917C14.7875 5.1175 13.7744 4.30167 12.5 3.80167V4.16667C12.5 4.625 12.3369 5.0175 12.0108 5.34417C11.6847 5.67083 11.2922 5.83389 10.8333 5.83333H9.16667V7.5C9.16667 7.73611 9.08667 7.93417 8.92667 8.09417C8.76667 8.25417 8.56889 8.33389 8.33333 8.33333H6.66667V10H11.6667C11.9028 10 12.1008 10.08 12.2608 10.24C12.4208 10.4 12.5006 10.5978 12.5 10.8333V13.3333H13.3333C13.6944 13.3333 14.0208 13.4411 14.3125 13.6567C14.6042 13.8722 14.8056 14.1533 14.9167 14.5Z" fill="#242423" fill-opacity="0.7"/>
</svg>
