<svg width="40" height="40" viewBox="0 0 40 40" fill="none" xmlns="http://www.w3.org/2000/svg">
<path d="M30.0033 35.8332C28.8478 35.8332 27.8639 35.4276 27.0516 34.6165C26.2394 33.8076 25.8333 32.8243 25.8333 31.6665C25.8333 31.4443 25.8528 31.2148 25.8916 30.9782C25.9294 30.7404 25.9866 30.5171 26.0633 30.3082L13.16 22.7048C12.7522 23.1648 12.2778 23.5232 11.7366 23.7798C11.1966 24.0376 10.6178 24.1665 9.99998 24.1665C8.8422 24.1665 7.85887 23.7621 7.04998 22.9532C6.23887 22.1432 5.83331 21.1598 5.83331 20.0032C5.83331 18.8476 6.23887 17.8637 7.04998 17.0515C7.85776 16.2393 8.84109 15.8332 9.99998 15.8332C10.6178 15.8332 11.1966 15.9621 11.7366 16.2198C12.2778 16.4765 12.7522 16.8348 13.16 17.2948L26.0633 9.6915C25.9866 9.48261 25.9294 9.25928 25.8916 9.0215C25.8528 8.78484 25.8333 8.55539 25.8333 8.33317C25.8333 7.17539 26.2383 6.19206 27.0483 5.38317C27.8572 4.57206 28.84 4.1665 29.9966 4.1665C31.1522 4.1665 32.1361 4.5715 32.9483 5.3815C33.7605 6.19039 34.1666 7.17317 34.1666 8.32984C34.1666 9.48539 33.7611 10.4693 32.95 11.2815C32.1411 12.0937 31.1578 12.4998 30 12.4998C29.3822 12.4998 28.8033 12.3709 28.2633 12.1132C27.7222 11.8565 27.2478 11.4982 26.84 11.0382L13.9366 18.6415C14.0133 18.8504 14.0705 19.0726 14.1083 19.3082C14.1472 19.5448 14.1666 19.7732 14.1666 19.9932C14.1666 20.2132 14.1472 20.4437 14.1083 20.6848C14.0705 20.9248 14.0133 21.1493 13.9366 21.3582L26.84 28.9615C27.2478 28.5015 27.7222 28.1432 28.2633 27.8865C28.8033 27.6287 29.3822 27.4998 30 27.4998C31.1578 27.4998 32.1411 27.9048 32.95 28.7148C33.7611 29.5237 34.1666 30.5065 34.1666 31.6632C34.1666 32.8187 33.7622 33.8026 32.9533 34.6148C32.1433 35.4271 31.16 35.8332 30.0033 35.8332ZM30 10.8332C30.6855 10.8332 31.2739 10.5882 31.765 10.0982C32.255 9.60706 32.5 9.01873 32.5 8.33317C32.5 7.64761 32.255 7.05928 31.765 6.56817C31.2739 6.07817 30.6855 5.83317 30 5.83317C29.3144 5.83317 28.7261 6.07817 28.235 6.56817C27.745 7.05928 27.5 7.64761 27.5 8.33317C27.5 9.01873 27.745 9.60706 28.235 10.0982C28.7261 10.5882 29.3144 10.8332 30 10.8332ZM9.99998 22.4998C10.6855 22.4998 11.2739 22.2548 11.765 21.7648C12.255 21.2737 12.5 20.6854 12.5 19.9998C12.5 19.3143 12.255 18.7259 11.765 18.2348C11.2739 17.7448 10.6855 17.4998 9.99998 17.4998C9.31442 17.4998 8.72609 17.7448 8.23498 18.2348C7.74498 18.7259 7.49998 19.3143 7.49998 19.9998C7.49998 20.6854 7.74498 21.2737 8.23498 21.7648C8.72609 22.2548 9.31442 22.4998 9.99998 22.4998ZM30 34.1665C30.6855 34.1665 31.2739 33.9215 31.765 33.4315C32.255 32.9404 32.5 32.3521 32.5 31.6665C32.5 30.9809 32.255 30.3926 31.765 29.9015C31.2739 29.4115 30.6855 29.1665 30 29.1665C29.3144 29.1665 28.7261 29.4115 28.235 29.9015C27.745 30.3926 27.5 30.9809 27.5 31.6665C27.5 32.3521 27.745 32.9404 28.235 33.4315C28.7261 33.9215 29.3144 34.1665 30 34.1665Z" fill="#52796F"/>
</svg>
