<svg width="40" height="40" viewBox="0 0 40 40" fill="none" xmlns="http://www.w3.org/2000/svg">
<path d="M13.3333 31.5465C15.3603 32.7169 17.6595 33.3331 20.0001 33.3332C22.3406 33.3333 24.64 32.7172 26.667 31.547C28.694 30.3768 30.3772 28.6936 31.5475 26.6666C32.7178 24.6397 33.3339 22.3404 33.3339 19.9998C33.3339 17.6593 32.7178 15.36 31.5475 13.333C30.3772 11.3061 28.694 9.62288 26.667 8.45266C24.64 7.28244 22.3406 6.66641 20.0001 6.6665C17.6595 6.66659 15.3603 7.28279 13.3333 8.45317" stroke="#354F52" stroke-width="1.66667"/>
<path d="M3.33333 19.9998L2.68333 19.4798L2.26666 19.9998L2.68333 20.5198L3.33333 19.9998ZM18.3333 20.8332C18.5543 20.8332 18.7663 20.7454 18.9226 20.5891C19.0789 20.4328 19.1667 20.2208 19.1667 19.9998C19.1667 19.7788 19.0789 19.5668 18.9226 19.4106C18.7663 19.2543 18.5543 19.1665 18.3333 19.1665V20.8332ZM9.35 11.1465L2.68333 19.4798L3.98333 20.5198L10.65 12.1865L9.35 11.1465ZM2.68333 20.5198L9.35 28.8532L10.65 27.8132L3.98333 19.4798L2.68333 20.5198ZM3.33333 20.8332H18.3333V19.1665H3.33333V20.8332Z" fill="#354F52"/>
</svg>
